<svg width="10" height="15" viewBox="0 0 10 15" fill="none" xmlns="http://www.w3.org/2000/svg">
<path d="M5.35293 12.3529C5.57782 12.3532 5.79413 12.4393 5.95766 12.5937C6.1212 12.7481 6.2196 12.9591 6.23278 13.1836C6.24596 13.4081 6.17292 13.6292 6.02858 13.8016C5.88423 13.9741 5.67948 14.0849 5.45616 14.1115L5.35293 14.1176H1.82352C1.59862 14.1174 1.38231 14.0313 1.21878 13.8769C1.05525 13.7225 0.956837 13.5115 0.943657 13.287C0.930477 13.0625 1.00352 12.8414 1.14787 12.669C1.29221 12.4965 1.49696 12.3857 1.72028 12.3591L1.82352 12.3529H5.35293ZM8.88234 8.82353C9.11635 8.82353 9.34078 8.91649 9.50626 9.08196C9.67173 9.24744 9.76469 9.47187 9.76469 9.70588C9.76469 9.9399 9.67173 10.1643 9.50626 10.3298C9.34078 10.4953 9.11635 10.5882 8.88234 10.5882H1.82352C1.5895 10.5882 1.36507 10.4953 1.1996 10.3298C1.03412 10.1643 0.941162 9.9399 0.941162 9.70588C0.941162 9.47187 1.03412 9.24744 1.1996 9.08196C1.36507 8.91649 1.5895 8.82353 1.82352 8.82353H8.88234ZM5.35293 3.52941C5.57782 3.52966 5.79413 3.61578 5.95766 3.77016C6.1212 3.92454 6.2196 4.13555 6.23278 4.36005C6.24596 4.58456 6.17292 4.80563 6.02858 4.97809C5.88423 5.15055 5.67948 5.26138 5.45616 5.28794L5.35293 5.29412H1.82352C1.59862 5.29387 1.38231 5.20775 1.21878 5.05337C1.05525 4.89898 0.956837 4.68798 0.943657 4.46348C0.930477 4.23897 1.00352 4.0179 1.14787 3.84544C1.29221 3.67298 1.49696 3.56215 1.72028 3.53559L1.82352 3.52941H5.35293ZM8.88234 0C9.10723 0.000249448 9.32354 0.0863639 9.48708 0.240749C9.65061 0.395133 9.74902 0.606135 9.7622 0.830642C9.77538 1.05515 9.70233 1.27622 9.55799 1.44868C9.41364 1.62113 9.2089 1.73197 8.98558 1.75853L8.88234 1.76471H1.82352C1.59862 1.76446 1.38231 1.67834 1.21878 1.52396C1.05525 1.36957 0.956837 1.15857 0.943657 0.934063C0.930477 0.709556 1.00352 0.488489 1.14787 0.31603C1.29221 0.143571 1.49696 0.0327385 1.72028 0.00617644L1.82352 0H8.88234Z" fill="white"/>
</svg>
